Patient4_TMGait_0pt7_01_left_38_EMG.mot
version=1
nRows=17
nColumns=33
inDegrees=no
endheader
time	1LAddLong	2LGlutMax	3LGlutMed	4LIliopsoas	5LSemiMemb	6LBicFemLong	7LRecFem	8LVastMed	9LVastLat	10LGasMed	11LTibAnt	12lTibPost	13LPeroneusLong	14LSol	15LExtDigLong	16LFlexDigLong	17RAddLong	18RGlutMax	19RGlutMed	20RIliopsoas	21RSemiMemb	22RBicFemLong	23RRecFem	24RVastMed	25RVastLat	26RGasMed	27RTibAnt	28RTibPost	29RPeroneusLong	30RSol	31RExtDigLong	32RFlexDigLong
44.367	0.04303	0.97168	-0.052643	0.003357	0.006256	0.059662	0.57648	-0.013733	-0.48019	-0.050964	0.095215	-0.015106	0.44876	0.28763	-0.088806	0.016174	0.042725	0.18082	0.35477	-0.020752	-0.10254	0.071106	0.78156	-0.14374	0.005646	-0.026245	0.07019	-0.42114	-1.7	-0.38269	-0.005188	-0.003052
44.368	0.041656	0.90729	-0.15595	0.000153	0.062408	0.19272	0.51926	-0.026245	-0.71503	-0.11215	0.093689	0.006866	0.33524	0.3537	-0.06485	0.02594	0.046692	0.19516	0.29785	-0.003052	-0.12238	0.029449	0.82001	-0.1503	0.001221	-0.040741	0.052643	0.89493	-2.3465	-0.51102	-0.003204	0.012207
44.369	0.036011	0.88089	-0.12329	0.004272	0.042572	0.27924	0.44113	-0.030823	-0.74295	-0.1532	0.07843	0.073395	-0.36926	-0.004883	-0.12482	0.008545	0.046234	0.22797	0.22446	0.02121	-0.1413	-0.003357	0.78354	-0.15427	-0.008087	-0.03067	0.029602	0.47028	-0.63095	-0.057831	0.00061	0.003357
44.37	0.023804	0.84198	-0.14511	0.01358	-0.008087	0.078125	0.3862	-0.02594	-0.62241	-0.072021	0.017395	0.094147	-0.96039	-0.41596	-0.31097	0.003204	0.042114	0.20905	0.20096	0.10834	-0.14633	-0.031738	0.75272	-0.11993	0.010681	0.011139	-0.002747	0.16434	0.016632	0.46219	-0.004272	-0.003052
44.371	-0.011139	0.78705	-0.13534	0	-0.12848	0.17609	0.30899	0.007324	-0.44891	-0.013733	0.018005	0.10452	0.20844	-0.39719	-0.12466	0.011292	0.079193	0.12924	0.1944	0.11673	-0.11215	-0.007477	0.76157	-0.099792	0.014191	0.005798	-0.023041	0.25757	0.54871	0.45898	-0.00351	-0.018768
44.372	-0.033875	0.76111	-0.22278	-0.002747	-0.26291	0.31357	0.23254	0.024109	-0.31296	-0.093384	0.079651	0.11307	0.20828	0.073547	0.15533	0.014038	0.066376	0.1326	0.13611	0.092621	-0.089264	-0.013733	0.81421	-0.1004	0	-0.043945	-0.000763	-0.14221	1.0068	0.70267	-0.004883	-0.023651
44.373	-0.04303	0.79941	-0.15854	0.013123	-0.35782	0.43991	0.14343	0.019531	-0.18402	0.010071	0.10941	0.12817	-0.26718	0.02182	0.10468	0.018463	0.058441	0.088806	0.13794	0.024872	-0.085144	-0.018311	0.8107	-0.13489	-0.013275	-0.066833	0.052948	-0.73807	1.0193	0.30502	-0.003052	-0.018921
44.374	-0.028381	0.78705	0.029297	0.023193	-0.27237	0.52551	0.081329	0.010529	-0.12909	0.12817	0.10483	0.13886	-0.081635	-0.082397	0.28458	0.029449	0.050964	0.079498	0.075226	-0.019989	-0.098572	0.036774	0.81665	-0.1564	-0.010376	-0.049438	0.23392	0.21362	0.93246	-0.54535	-0.001068	-0.003967
44.375	0.007782	0.62485	0.22186	-0.002441	-0.058136	0.35492	0.032959	0.02655	-0.2153	0.25971	0.088959	0.14771	0.20035	-0.20752	0.38483	0.023346	0.049591	0.063629	0.01358	0.014801	-0.060272	0.055237	0.76828	-0.11917	0.005646	-0.026703	0.48859	0.42938	0.70526	-0.12329	-0.003052	-0.011597
44.376	0.043488	0.61981	0.18524	-0.007935	0.13687	-0.22492	-0.043182	0.039215	-0.17609	-0.077209	-0.053406	0.1532	-0.15381	-0.10574	0.010681	0.016937	0.052795	0.034943	-0.003204	-0.007782	-0.062866	-0.048523	0.7341	-0.11902	-0.001678	-0.021973	0.50537	0.30029	0.55939	-0.16342	-0.004578	-0.016632
44.377	0.066376	0.55344	0.085754	-0.00061	0.22598	-0.39734	-0.080719	0.00412	-0.074463	0.12543	-0.13351	0.15152	0.13214	-0.057983	-0.3685	0.009308	0.024719	0.0354	-0.093231	0.006104	-0.079651	-0.087433	0.81238	-0.2066	-0.03479	-0.033112	0.39658	0.11444	0.54565	0.31479	-0.002441	-0.015869
44.378	0.06546	0.53635	-0.028687	0.016174	0.18143	-0.030212	-0.08255	-0.015717	-0.21194	0.47302	-0.027771	0.1683	0.53986	-0.16083	-0.42313	0.001678	0.013123	0.053711	-0.10941	-0.019379	-0.09491	-0.009766	0.75668	-0.17014	-0.045166	-0.015869	-0.13245	0.023346	0.40604	0.37628	-0.002136	-0.004272
44.379	0.06012	0.43716	-0.10819	-0.004272	0.063171	0.3418	-0.23712	-0.016632	-0.33264	0.44662	-0.019989	0.16312	1.0896	-0.1265	-0.2385	-0.010529	-0.033264	0.019226	-0.11795	0.023346	-0.068665	0.18982	0.72403	-0.10376	-0.027771	0.010223	-0.95764	-0.024109	0.43488	0.13412	-0.000305	-0.00946
44.38	0.059204	0.40314	-0.11398	0.010529	-0.010071	0.69199	-0.36774	-0.006256	-0.24994	0.42084	0.037231	0.12619	0.80749	-0.15533	0.001984	-0.035553	-0.046997	0.00351	-0.16663	0.13718	-0.014343	0.19424	0.73639	-0.07431	-0.023193	0.01236	-1.0812	-0.049591	0.2095	0.000763	0.009613	0.000153
44.381	0.056458	0.38284	-0.08728	0.014343	-0.041199	0.54886	-0.448	-0.006866	-0.079193	0.76874	0.058899	0.098572	0.215	-0.084991	0.19699	-0.024719	-0.039063	-0.076904	-0.27786	0.33218	-0.034332	0.11261	0.72571	-0.083466	-0.026245	0.005035	-0.51514	-0.06073	0.020752	-0.2272	0.00061	0.001831
44.382	0.057068	0.34714	-0.12558	0.00351	-0.046234	0.36591	-0.47165	-0.006714	-0.013275	0.76324	0.035858	0.071716	-0.27329	-0.037537	0.088043	-0.011292	-0.014191	-0.026245	-0.5249	0.40329	-0.047607	0.11215	0.68466	-0.061493	-0.00824	0.002136	0.16724	-0.056458	0.087585	-0.21973	-0.003052	-0.006256
44.383	0.043182	0.39307	-0.11414	0.018463	-0.018921	0.22888	-0.48248	-0.007172	0.031281	-0.54199	-0.036316	0.026855	-0.82062	0.090027	-0.027771	0.001221	0.022278	-0.029755	-0.49408	0.21729	-0.093231	0.10941	0.6308	-0.061493	0.002289	0.001526	0.10452	-0.054016	0.36133	-0.11734	-0.000458	-0.000916
